<?xml version='1.0' encoding='utf-8'?>
<svg xmlns="http://www.w3.org/2000/svg" width="1817px" height="1299px" version="1.1" viewBox="-369 405 1817 1299"> <g fill="#00b6b9"> <path d="m-369 404.01c-0.2619 0-0.51307 0.10403-0.69828 0.28925-0.18522 0.18521-0.28925 0.43638-0.28925 0.69828l0.00101 1299c0 0.5454 0.44214 0.9875 0.98752 0.9875l1817 1e-3c0.262 0 0.513-0.1041 0.6982-0.2893s0.2893-0.4362 0.2893-0.6982l-1e-3 -1299c0-0.54538-0.4421-0.98752-0.9875-0.98752l-1817-0.00101z"/> </g> <g> <g fill="#0f3b52" fill-opacity=".99608"> <path d="m405.96 790.82v0.0029-0.0022-7e-4 0.0029-0.0029 7e-4q0-7e-4 0-7e-4z"/> <path d="m363.68 1136.4-1e-4 1e-3 1e-4 0.0029v-0.0039l-1e-4 1e-3 1e-4 -1e-3v1e-3q0-1e-3 0-1e-3z"/> </g> <g> <path d="m390.47 886.02q-10.582-1.3632-17.491 3.3619-1.0038 0.3472-10.107 8.2437-11.291 6.9782-11.997 8.2075-4.0193 3.8083-5.3784 9.4753-3.906 18.55 4.089 42.219 1.7296 5.0075 4.0752 10.332l13.261 9.3877q26.061-15.874 35.074-26.715 4.6636-5.3165 8.564-12.691 2.4038-4.1463 8.8512-20.224 1.0978-2.4485 2.3004-4.4483 2.7279-4.738 7.5994-7.7163-1.7756-6.7788-10.926-11.091-13.908-6.5366-27.868-8.3374z"/> <path d="m268.73 1056.6-0.01618 0.0373q-14.406 32.244-16.755 33.254-0.02442 0.012-0.04719 0.0201-1.1039 0.3735 0.1457-6.2454 1.0043-5.5592 5.3703-22.843l11.302-4.2226zm41.637-96.658q-2.186 0.73753-4.2092 2.0886-0.05828 0.0149-0.11888 0.03516-3.0836 1.0422-12.212 15.124-3.6629 3.9375-8.1096 6.9041-55.421 28.467-57.61 32.179-13.175 9.9095-16.112 23.265-1.6176 6.6523-1.8307 15.722l-0.88217 76.569q0.53875 11.936 9.4271 8.9324 2.3566-0.7959 5.2992-2.6421l0.00177 5e-4 -24.696 51.784 10.928 6.098q0.8748 10.017 4.1032 21.201 17.697 51.841 17.227 52.859 2.8198 10.369 5.1356 26.916l-64.221-5.6901q-9.0642-7.9473-32.446-13.379-10.649 14.822-8.589 38.734 0.68158 13.054 4.8144 41.44 73.127 2.2176 133.94 11.179 11.556 0.8889 18.237-0.8497 0.9071-0.2092 1.7634-0.4975 10.079-3.4067 13.002-18.002 3.5746-13.582 7.3515-80.205l44.124 28.264-9.877 145.35 0.64991 0.1783 68.541-5.8561 8.2218-142.49q0.13898-17.597-9.6557-32.234-8.791-14.225-41.076-45.053h0.0028l9.1528-2.3723-38.129-67.482 39.262-53.712q38.904 23.606 61.593 25.788 10.658 1.3596 24.813-0.1313 50.719-9.4804 54.659-8.4914l-8.9534-39.744-69.057 5.4074-36.907-27.823q-0.8729-24.453-12.292-52.451l-42.256-33.338-8.7987 7.9617q-18.976-11.825-26.286-12.268l-0.35047-0.0439q-4.0065-0.4263-7.5767 0.781z"/> </g> <g fill="#fff"> <path d="m376.38 974.52q-5.1475-4.0719-15.059-8.9389l-1.9949 3.1509q6.9334 6.1477 10.797 14.88 4.5414 9.9762 8.5748 27.478 7.1741 30.081 2.8386 55.652 11.396-12.568 15.084-20.243 3.7303-7.2083 3.0526-16.97-0.1366-2.5058-0.53027-5.5813l-2.2839-15.223q-0.59506-4.3528-1.4752-12.931-11.905-16.111-18.93-21.217z"/> </g> <g fill="#ffc5ad"> <path d="m420.96 911.55q-12.4 3.062-14.108 6.5608-1.8756 2.6775-0.07373 9.7661l-6.5765 6.6231-0.8562 11.434-5.6509 0.8958q-3.7589-9.247-5.6537-11.003-2.2191-2.2834-5.3199-0.3276-3.7582 2.3286-4.9904 5.8129-0.94568 2.1946 0.5332 8.8486-0.06165 1.2508-0.9801 2.5762-1.0758 2.3828-16.242 15.058l32.899 29.908 12.434-9.949 9.0841-3.1931q10.4 1.9546 12.277-0.1997 2.3256-1.6904-0.79564-11.429 2.632-4.8548 2.2873-6.4424-0.14134-1.8972-3.6256-3.7188 4.3406-0.6599 4.9415-2.2795 0.91444-1.5371-0.51904-7.093 7.5411-0.94166 6.9586-3.0969-0.05824-1.0932-1.7485-3.2431l-8.4522-9.7949-0.4873-2.9846q1.2616-3.8501 0.26581-7.7218-0.76916-3.7515-5.5807-14.956z"/> <path d="m228.39 1129.8q-3.0556 16.058-3.2564 20.892-0.138 2.2493 0.07367 3.9576 0.02521 0.759 0.91968 4.3354 0.14538 0.749 0.17999 1.5535 0.03424 0.687-0.05298 1.7827-0.58697 5.2222-0.55524 5.825-0.06927 1.9121 0.21894 3.0959 0.43469 1.863 1.8708 2.761 1.58 0.957 3.3398 0.5181 0.10986-0.0311 0.21643-0.0684 2.8742-0.9707 3.0561-5.5112 0.15473-2.5989-0.37066-6.3665l9.7e-4 0.0012q0.75798 0.315 1.3917 0.5335l-0.0011 9e-4q0.3078 0.9634 0.54065 2.011 0.14111 0.6365 0.24811 1.26l0.45679 2.8416q0.12152 0.6729 0.25061 1.1846 0.12835 0.5088 0.27459 0.8928l-0.0014 5e-4q-0.38098 2.8767-0.50098 4.4336-0.20618 2.4519-0.09674 4.2285 0.20618 3.5549 1.8673 4.8604 1.2949 1.0693 3.2126 1.0414 0.91412-0.0383 1.7055-0.3059 0.6864-0.2334 1.2793-0.635l0.00232 5e-4q-0.4328 3.7581 0.25586 5.1345 0.49628 1.1919 1.6757 1.6863 1.2096 0.4917 2.6616 0.0957 0.10376-0.0307 0.20569-0.0652 2.3722-0.8017 3.9482-3.6755 0.56861-1.0142 1.1052-2.3323l0.00158 8e-4q2.7163 1.0168 4.6184 0.3737 0.87445-0.2944 1.5762-0.9402 3.1333-2.8 4.4664-9.0206 1.8534-7.3198-2.2795-22.397l-0.00122 4e-4q0.73412-0.3913 1.2399-0.9719l0.00197 3e-3q8.0251 7.0258 11.639 8.0471 2.5775 0.8503 4.6644 0.145 0.31738-0.1079 0.62341-0.2505 2.4634-1.3611 1.8353-3.343-0.33583-0.8545-1.6213-1.7317l-1.2002-0.7622q-3.4727-1.961-3.9314-2.2703-1.2466-0.7656-2.3114-1.5711-1.7778-1.3526-3.0317-2.8516-3.7448-4.4307-6.6768-12.976l-0.00379-0.0093-0.08197 0.377 7.2e-4 0.0012q-0.43895-0.6682-1.0196-1.1213-2.0901-1.8694-8.9324-2.7337-5.8947-0.8659-25.664-1.8623l-0.01312-7e-4 0.00122 0.0097v0.0013l-0.01587-0.0928-0.00586-0.022z"/> </g> <g> <path d="m392.66 997.78-6.2267 12.478 7.1511 5.5342q2.8488 9.2202 1.2588 16.08-0.86964 4.5361-4.1953 11.282l-3.0898 5.8935-7.1254 12.411q-1.297 2.3109-1.8886 3.6258-1.3859 2.9273-0.48768 3.7393 1.126 1.0188 6.8075-0.2632 3.7367-1.0383 6.472-3.4187 5.1169-4.3565 6.9436-13.807 2.9432-15.553 1.0399-39.04-0.62658-6.3716-2.2758-10.562l-4.3692-3.9408z"/> </g> <g fill="#fa5757" fill-opacity=".07451"> <path d="m394.49 971.27-1.1293 26.08 20.807-13.101q-8.3656-3.4692-12.067-5.9985-3.5416-2.3347-7.5948-6.9633z"/> </g> <g fill-opacity=".99608"> <path d="m429.51 920.86v0.0012 5e-4 -0.0017z"/> <path d="m330.77 964.04-1.2e-4 2.4e-4 7.4e-4 0.00171-6.2e-4 -0.00195z"/> </g> <g fill="#fff"> <path d="m573.37 728.82c-0.43946 0.21435-0.7194 0.7527-0.91163 1.583-0.77271 3.2009 6.4027 12.041 15.693 19.293 11.823 9.3706 38.761 19.053 60.898 22.013 4.7097 0.6563 8.508 1.3701 8.4116 1.6521-0.00623 0.01907-0.0243 0.03567-0.0546 0.05056-1.1523 0.56714-19.332-2.0056-26.917-3.919-14.811-3.6686-33.462-11.637-41.533-17.685-1.2622-0.95896-2.2641-1.2546-2.9079-0.9377-0.0591 0.0283-0.115 0.0627-0.16737 0.1018-0.78893 0.62376-0.57507 1.5361 1.2266 5.1931 1.9256 3.9075 2.8002 4.8865 6.8982 7.959 2.597 1.9333 7.7956 4.8559 11.588 6.5121 12.663 5.5095 36.294 11.024 48.988 11.508 7.4149 0.26366 9.1732 0.49316 8.9489 1.3106-0.0098 0.02196-0.0335 0.042-0.07254 0.06126-0.99136 0.48754-11.372-0.10666-19.595-1.1846-7.8807-1.0505-20.277-3.9544-30.471-7.1558-5.9198-1.8542-8.9553-2.5361-10.046-1.9995-0.7181 0.35366-0.59126 1.2372 0.11144 2.6638 2.1737 4.4107 8.627 7.813 21.741 11.537 10.73 3.0154 19.773 4.3574 31.933 4.7139 4.7448 0.0908 8.5141 0.4267 8.4182 0.70896-0.00342 0.02564-0.03211 0.05124-0.08179 0.07594-0.43701 0.2153-2.5641 0.375-5.0434 0.3335-16.812-0.25686-22.558-0.9502-37.18-4.8696-4.7162-1.2148-6.9777-1.632-7.6725-1.29-0.15164 0.0742-0.2293 0.1853-0.24075 0.3308-0.26975 2.9527 5.493 6.3809 16.911 10 10.758 3.3942 23.853 5.0119 34.356 4.226 3.688-0.3042 5.4581-0.1104 4.6495 0.28855-0.3634 0.1792-1.2452 0.39895-2.7075 0.63425-3.9944 0.6348-14.521 0.25955-23.597-0.83225-4.2663-0.55955-8.1256-0.77051-8.5111-0.58495l-0.00256 0.00536c-1.3194 0.65224 0.51965 3.1118 4.0542 5.519 4.1003 2.7583 12.475 5.2893 17.505 5.3196 3.6132 0.0217 15.406-1.4802 19.719-2.586 1.2272-0.37015 2.3903-0.39505 2.5459-0.07885 0.0912 0.1843 0.09035 0.33275-0.26194 0.50634-0.85401 0.42089-3.7769 0.98826-12.484 2.5611-5.4431 1.0354-10.541 2.1355-11.359 2.5402-1.8911 0.93215-2.4037 2.594-1.4413 4.5486 2.08 4.2224 8.4841 5.4556 16.165 3.0816 7.7349-2.366 10.037-2.95 7.4979-1.6997-0.90222 0.44407-2.416 1.1213-4.5139 2.031l-7.8456 3.4744-1.0225 2.853c-0.48034 1.5696-0.6487 3.453-0.30725 4.1459 0.99365 2.0181 6.3564 3.8403 9.0632 3.1331 0.24864-0.07251 0.58385-0.21436 0.9902-0.41456 2.8434-1.4011 9.169-5.6562 13.396-9.1782 0.46605-0.37185 0.7699-0.60085 0.93834-0.68579l0.00512 0.00124c0.29334-0.14724 0.17334 0.1611-0.19116 0.9387-0.3191 0.7844-3.3516 3.5325-6.7302 6.215-6.3446 4.9295-8.2152 7.6513-7.0664 9.9836 0.83787 1.7007 2.8103 3.0032 4.6327 3.0444 0.38625 0.01586 0.9032-0.14134 1.5213-0.44848 2.454-1.2075 6.5099-4.7342 10.351-9.0041 1.939-2.1799 3.2493-3.4551 3.8604-3.7581l0.0039-9.6e-4c0.40235-0.198 0.49925 0.03002 0.26955 0.70266-0.1918 0.5654-2.2492 3.0678-4.5264 5.5998-5.2515 5.8776-6.6856 9.3261-4.847 11.788 1.5602 2.0518 4.5089 2.9488 6.4617 1.9858 2.2701-1.1177 6.0099-6.4063 9.2233-13.081 1.6784-3.3994 3.1972-6.3318 3.4602-6.4824l0.00403-0.00174c0.21853-0.02536-1.0924 3.8293-2.9116 8.7197-2.6511 7.1801-3.1034 9.1247-2.389 10.576 1.2232 2.4824 5.7297 3.8523 8.264 2.6048 0.10376-0.0503 0.20472-0.1062 0.30126-0.1658 1.6718-1.0583 1.8346-2.0019 2.1161-12.401 0.4573-13.542 1.1478-18.66 3.5765-25.497 0.95911-2.823 1.635-5.4275 1.4794-5.7424-0.15514-0.31495-1.9733-0.98585-3.9508-1.5002-4.3927-1.1264-8.0531-3.9467-9.8861-7.5075-0.6825-1.3859-1.7286-5.2575-2.3051-8.653-0.54687-3.3357-1.9923-8.4968-3.1072-11.396-2.1069-5.0728-2.4185-5.5457-6.2656-8.5857-8.4758-6.8689-15.972-9.2085-38.643-12.296-7.41-1.0488-16.233-2.4219-19.591-3.1956-7.878-1.6799-25.976-7.569-31.146-10.115-5.546-2.6719-14.057-8.9762-20.213-14.793-4.2483-3.9602-6.3561-5.4455-7.4596-4.9011z"/> </g> <g fill="#0f3b52" fill-opacity=".99608"> <path d="m654.87 796.77v0.0032l-6e-4 -0.00196 6e-4 -0.00124v0.0032-0.0032l-6e-4 0.00124q6e-4 -0.00124 6e-4 -0.00124"/> </g> <g fill="#e2a305"> <path d="m688.63 936.43-12.77-7.7311c11.957-18.082 11.236-26.388 11.452-32.411 0.4375-13.051 1.2139-29.327 1.746-40.202 0.47-10.106 2.8633-20.057 7.0885-29.2 0.79089-1.6394 1.5821-3.2793 2.3422-4.5342 14.705-24.286 41.248-36.966 67.673-35.291-21.445 3.7624-41.283 16.365-53.44 36.444-0.80444 1.3284-1.6401 3.0415-2.4466 4.8738-4.5381 9.6604-7.023 20.261-7.5404 30.944-0.54919 11.572-1.3739 28.927-1.8736 42.748-0.27724 6.2886 0.42625 15.29-12.23 34.359z"/> </g> <g fill="#fff"> <path d="m597.55 1278.5v8e-4l-3.4e-4 4e-4 3.4e-4 -4e-4v-8e-4 8e-4l-3.4e-4 4e-4q3.4e-4 -4e-4 3.4e-4 -0.0012z"/> </g> <g fill="#ffc5ad"> <path d="m538.29 1058.7q-3.1347 0.7821-6.0145 3.3883-2.6971 2.3001-8.8017 9.7212l-7.7007 2.0877 4.5352 18.8q9.0008 1.7724 12.491 1.0935 3.3995-0.4236 6.8839-4.4239 4.9888 3.1016 7.9442 2.1536 4.1334-0.9189 8.9809-9.6992 5.0231-9.6885 3.9658-14.256-0.59448-2.1236-2.87-3.0159-2.0194-0.864-7.1546-0.9524 4.4225-1.3041 4.5764-2.733 0.14404-2.4395-2.9987-3.9346-1.4896-0.6618-4.0882-0.3267-0.8141 0.1043-1.9886 0.3565l-7.7564 1.7388z"/> </g> <g fill="#fff"> <path d="m516.74 1073.1-6.4829 1.3122 1.2951 30.663q5.9283 0.7912 8.0504-0.1192 2.5869-0.9553 3.071-4.0183 0.51535-3.0517-0.8534-9.4578-1.0954-5.3837-5.0716-18.353z"/> </g> <g> <path d="m347.11 1441.3-3.5293 8.6655-4.3514-0.6514q-1.5526 7.3741-1.825 11.415-1.4022 9.4321 6.0871 27.762l37.381-10.264-1.8475-7.2627q20.964 0.1118 31.238-1.1993 11.808-1.3718 21.039-4.9693 20.868-8.5324 22.54-18.33 0.05822-5.6231-7.2655-5.7107-2.2697-0.0115-6.1794 0.8715-0.10633-0.0939-14.256 3.8101-3.2837 0.8291-6.0402 1.3059-6.1206 1.0767-10.46 0.26-9.4297-1.7041-17.255-12.008l-45.097 6.2794z"/> <path d="m123.19 1262.1q-5.7999-1.7832-12.725 5.6187-3.9261 3.931-12.222 15.325l4.0615 2.6593q-22.74 15.691-31.252 30.301-8.8236 14.703-12.995 32.796-3.0298 13.421 3.0372 14.147 8.4513 2.2429 11.311 0.0435 1.7036-0.9798 3.424-2.8738 8.9311-10.847 10.801-12.45 3.2709-3.2835 7.282-5.9697 3.5578-2.4053 8.5884-4.9893 24.376-11.285 33.723-16.771l8.6188-41.032q-15.963-15.812-21.59-16.788z"/> </g> <g fill-opacity=".51373"> <path d="m1046.9 1480.7-4.7143 0.958q-35.982 3.1293-196.42 6.0754-160.64 2.9391-364.45 4.4142-107.8 0.744-193.58 0.8634-75.819 0.128-141.58-0.2592-25.816-0.1351-52.178-0.4806l-22.582-0.327q-20.76-0.345-34.232-0.7595-26.944-0.8294-24.737-1.9378 7.1822-2.8811 151.76-5.9509 149.95-3.2101 365.4-5.0466 83.554-0.731 209.07-1.1835 81.887-0.2126 156.71 0.1137l43.729 0.2851 37.162 0.4097 29.979 0.5328 22.178 0.6487 13.763 0.7661 4.7296 0.878"/> </g> <g fill="#fff"> <path d="m958.97 979.68c-0.0325 0.48874-0.42127 0.9521-1.1149 1.4477-2.6617 1.9353-13.575-1.3188-23.825-7.1362-13.179-7.3463-32.413-28.546-43.603-47.875-2.4063-4.1047-4.5169-7.3408-4.7411-7.144-0.0144 0.0127-0.02235 0.03614-0.0255 0.06909-0.0846 1.2832 9.2375 17.1 13.902 23.382 9.0493 12.285 23.535 26.483 32.211 31.629 1.3667 0.8018 2.0236 1.6143 1.9767 2.3311-0.0042 0.06516-0.0154 0.1306-0.0314 0.19456-0.2749 0.96704-1.2001 1.1167-5.2677 0.84864-4.347-0.2864-5.5865-0.7202-9.9913-3.3347-2.7775-1.6625-7.4637-5.3517-10.443-8.2233-9.9309-9.6006-24.052-29.334-29.347-40.881-3.0744-6.7539-3.96-8.2915-4.6274-7.7715-0.0167 0.01709-0.0266 0.04761-0.02916 0.09009-0.07314 1.1033 4.4413 10.471 8.5764 17.659 3.9832 6.8794 11.399 17.23 18.253 25.428 3.9735 4.7634 5.7652 7.3088 5.6846 8.5222-0.05188 0.79734-0.91615 1.0173-2.5034 0.9126-4.9085-0.32375-10.517-4.9878-18.966-15.686-6.8854-8.7651-11.581-16.609-16.552-27.712-1.8957-4.3511-3.6468-7.7051-3.8708-7.5098-0.02296 0.01344-0.03566 0.04884-0.03966 0.10524-0.03126 0.48486 0.6318 2.5122 1.6184 4.7881 6.6565 15.44 9.4933 20.486 18.701 32.502 2.9248 3.8952 4.1734 5.8266 4.1224 6.5998-0.0106 0.1677-0.083 0.28174-0.2135 0.34766-2.6265 1.3774-7.9949-2.6384-15.701-11.809-7.2472-8.6466-13.742-20.133-17.026-30.138-1.129-3.5252-1.9844-5.0855-2.0432-4.1873-0.02734 0.40477 0.1061 1.3037 0.4479 2.7449 0.9371 3.9358 5.305 13.52 9.7794 21.491 2.1465 3.7291 3.8172 7.2159 3.7924 7.6419l-6.1e-4 0.00563c-0.10144 1.467-3.0777 0.70714-6.6527-1.6398-4.1152-2.7341-9.6538-9.5097-11.603-14.146-1.3986-3.3318-4.5166-14.805-5.1406-19.212-0.1268-1.2759-0.5488-2.3603-0.89965-2.383-0.20375-0.01464-0.34131 0.04321-0.3678 0.43546-0.06285 0.95 0.52905 3.8677 2.4012 12.515 1.1212 5.4268 2.0508 10.558 1.9912 11.47-0.1395 2.1037-1.4808 3.2124-3.654 3.0698-4.6976-0.31054-8.2824-5.759-9.0216-13.765-0.76805-8.0539-1.1076-10.403-1.293-7.5791-0.06484 1.0025-0.1143 2.6612-0.1541 4.9488l-0.21335 8.5769-2.248 2.0356c-1.2651 1.0415-2.9431 1.9177-3.7147 1.8664-2.2424-0.14845-5.9757-4.408-6.3561-7.1794-0.0267-0.25705-0.024-0.6218 0.00515-1.0732 0.20959-3.1638 1.7262-10.636 3.367-15.887 0.1643-0.57273 0.2616-0.94143 0.2736-1.1294l8e-4 -0.00439c0.02054-0.32715-0.21884-0.09888-0.79856 0.53565-0.60194 0.59325-1.9837 4.4473-3.1729 8.593-2.1302 7.7473-3.9326 10.514-6.5274 10.344-1.8934-0.1243-3.8481-1.4504-4.5835-3.1187-0.16063-0.35059-0.21228-0.88819-0.16699-1.5764 0.17966-2.7304 1.8898-7.8279 4.3684-13.005 1.275-2.6267 1.9535-4.3244 1.9998-5.0052v-0.00364c0.02857-0.44726-0.2196-0.44946-0.754 0.01784-0.4489 0.394-1.9754 3.2519-3.4462 6.323-3.4259 7.0998-6.0659 9.7441-9.0428 8.9824-2.4923-0.6577-4.4478-3.0393-4.3035-5.2134 0.16663-2.5241 3.6267-8.0019 8.5676-13.52 2.5026-2.8503 4.632-5.3738 4.6703-5.6743l-2.6e-4 -0.0039c-0.05944-0.2122-3.1224 2.4734-6.9461 6.0205-5.6253 5.1935-7.2501 6.3534-8.8626 6.2472-2.7621-0.18189-5.7509-3.823-5.5659-6.6418 0.00795-0.11572 0.02185-0.22946 0.04028-0.34206 0.33987-1.9504 1.1472-2.4599 10.653-6.6924 12.341-5.5947 16.807-8.1882 22.199-13.045 2.2417-1.9644 4.3908-3.5828 4.7417-3.5601 0.35045 0.0237 1.6634 1.45 2.8949 3.0794 2.7194 3.6289 6.7226 5.9344 10.714 6.2694 1.5427 0.10204 5.5202-0.40896 8.8808-1.1748 3.2902-0.76879 8.6133-1.403 11.718-1.4795 5.492 0.00954 6.0486 0.11574 10.326 2.511 9.5872 5.2102 14.612 11.245 26.124 31.019 3.8004 6.4474 8.4375 14.078 10.435 16.887 4.5626 6.6384 16.916 21.117 21.243 24.923 4.5886 4.1056 13.666 9.5628 21.395 13.03 5.282 2.4131 7.4598 3.7949 7.3782 5.0225z"/> </g> <g fill="#313440"> <path d="m666.3 991.38 24.007 14.537q-4.9668 8.2034-9.9336 16.406-12.004-7.2687-24.008-14.538 4.9671-8.2018 9.9345-16.405z"/> </g> <g fill="#3f434f"> <path d="m657.73 969.66 55.806 33.793q-5.9732 9.8642-11.946 19.73-27.903-16.897-55.807-33.793 5.9734-9.865 11.947-19.731z"/> </g> <g fill="#292b37"> <path d="m671.59 929.38 35.187 21.307 35.188 21.305q-13.612 22.482-27.225 44.962-35.188-21.306-70.376-42.613 13.612-22.481 27.225-44.961z"/> </g> <g fill="#fdc00f"> <path d="m799.31 797.45c-34.547-20.917-79.775-9.866-100.78 24.829-0.75975 1.2549-1.5505 2.8946-2.3417 4.5335-4.2252 9.1435-6.6186 19.094-7.0437 29.127-0.5321 10.874-1.3532 27.225-1.7904 40.276-0.21695 6.0227 0.4598 14.402-11.452 32.409l32.184 19.488 32.259 19.532c10.48-18.975 18.175-22.184 23.411-25.168 11.363-6.4362 25.426-14.667 34.817-20.179 8.7375-5.1006 16.446-11.833 22.591-19.815 1.0862-1.4607 2.1728-2.9218 2.9325-4.177 21.008-34.694 9.7649-79.937-24.783-100.85z"/> </g> <g fill="#3f434f"> <path d="m742.03 976.02c-0.5811 0.95947-1.7665 1.2505-2.726 0.66917l-70.569-42.728c-0.95911-0.5818-1.2503-1.7671-0.66919-2.7263l2.1898-3.6167c0.58116-0.9595 1.7662-1.2512 2.7257-0.6699l70.495 42.685c0.95925 0.5803 1.251 1.7656 0.66994 2.7253l-2.1904 3.6162z"/> <path d="m730.84 993.94c-0.58105 0.9592-1.7658 1.2505-2.7256 0.6694l-70.57-42.73c-0.9589-0.58154-1.2506-1.7661-0.6692-2.7263l2.1899-3.6159c0.58107-0.96021 1.7666-1.251 2.726-0.67016l70.495 42.686c0.95994 0.57986 1.2512 1.7649 0.67014 2.7246l-2.19 3.6167z"/> <path d="m724.27 1004.8c-0.58104 0.95923-1.7664 1.2498-2.7258 0.6704l-70.569-42.731c-0.95924-0.58156-1.2503-1.7669-0.66944-2.7258l2.1903-3.6172c0.5811-0.95975 1.7658-1.2512 2.7255-0.67041l70.495 42.687c0.95974 0.57986 1.2514 1.7644 0.67007 2.7241l-2.1897 3.6181z"/> </g> <g fill="#fed96f"> <path d="m827.5 842.36c-7.6014-27.099-32.116-40.429-33.12-40.936-2.8209-1.5058-6.318-0.39524-7.7794 2.3511-1.5064 2.8211-0.39521 6.3189 2.3514 7.7803 0.22156 0.1345 21.177 11.511 27.495 33.898 4.1433 14.815 0.9249 31.127-9.521 48.711-1.475 2.4358-0.9104 5.502 1.2288 7.301 0.25036 0.25245 0.54577 0.43115 0.76723 0.56545 2.7314 1.654 6.2129 0.7356 7.8669-1.9964 12.144-20.389 15.731-39.806 10.711-57.675z"/> </g> <g> <path d="m544.43 594.98m0 10.488z"/> <path d="m544.43 594.98m0 10.488z"/> <path d="m544.43 594.98m0 10.488z"/> <path d="m544.43 594.98m0 10.488z"/> <path d="m544.43 594.98m0 10.488z"/> <path d="m544.43 594.98m0 10.488z"/> <path d="m544.43 594.98m0 10.488z"/> <path d="m544.43 594.98m0 10.488z"/> <path d="m544.43 594.98m0 10.488z"/> <path d="m586.8 679m0 10.488z"/> </g> </g> </svg>