<svg xmlns="http://www.w3.org/2000/svg" version="1.1" xmlns:xlink="http://www.w3.org/1999/xlink" viewBox="0 0 10.369169348980932 10.20623141304677"><g transform="matrix(0.8561665487581286,0,0,0.8561665487581286,3.2704253137003025,3.5389345084367565)"><g><path d=" M -1.0700134046948315 4.330675967445149 L -1.1733887873623359 4.503576280309658 L -1.3417567606585563 4.258469881772431 L -0.9445460380555887 3.5543637497090796 L -0.7640135478052896 3.817178984922231 L -0.8293909628944123 3.927250054681829 L -0.6673817143696417 4.163099561320277 L -0.5414581808045383 4.141170201379484 L -0.47151220831858787 4.242996012266049 L -1.0700134046948315 4.330675967445149 M -0.8925284474082411 4.032820559987647 L -1.0047619968721146 4.221283837540778 L -0.7888535870041644 4.183748145293822 L -0.8925284474082411 4.032820559987647 M -1.673329367792535 3.69322360489012 L -1.8047703275771605 3.3326444615865656 Q -1.8325301231550837 3.256491614527545 -1.8405049112984506 3.1946946040755577 Q -1.8484796994418176 3.1328975936235706 -1.8388174784009563 3.0859795683121773 Q -1.8291552573600953 3.039061543000784 -1.8029192935196965 3.007669948085854 Q -1.7766833296792979 2.976278353170925 -1.7358543936054855 2.961395089276737 Q -1.6950254575316734 2.946511825382549 -1.650735648042274 2.956092680662998 Q -1.6064458385528744 2.9656735359434467 -1.5644103393825919 2.9997230065619127 Q -1.5698540140362072 2.920632434620866 -1.5428191138275646 2.8707597151098785 Q -1.5157842136189221 2.820886995598891 -1.4579814501885813 2.799816307389142 Q -1.41852877038692 2.7854347265475674 -1.37488865423508 2.7910947235759735 Q -1.3312485380832397 2.79675472060438 -1.289009624511927 2.8242336516678614 Q -1.2467707109406139 2.851712582731343 -1.2088312746973864 2.9023268038225867 Q -1.1708918384541587 2.95294102491383 -1.1431320428762353 3.0290938719728504 L -0.9916237609870868 3.444723266162444 L -1.673329367792535 3.69322360489012 M -1.5032688228902618 3.2986167455718136 Q -1.516981492995019 3.2609990741330206 -1.5334569007165766 3.237900986158037 Q -1.5499323084381338 3.214802898183053 -1.5679207423083388 3.203949850617551 Q -1.5859091761785433 3.1930968030520495 -1.6043903007746012 3.192297866683806 Q -1.622871425370659 3.191498930315562 -1.6403040048179047 3.197853582315328 Q -1.6577365842651504 3.204208234315093 -1.671368106019282 3.2167131085776424 Q -1.6849996277734134 3.229217982840191 -1.6915544307565678 3.249017711510626 Q -1.698109233739722 3.2688174401810604 -1.6960845168757497 3.2971832002084818 Q -1.6940598000117775 3.3255489602359027 -1.68034712990702 3.363166631674696 L -1.6701462411705543 3.3911505092084324 L -1.4929007064695914 3.327059375196267 L -1.5032688228902618 3.2986167455718136 M -1.19865743465418 3.18757756326012 Q -1.2135406985483679 3.146748627186308 -1.2324578770084567 3.1219420756524543 Q -1.2513750554685452 3.0971355241186007 -1.2728685264619715 3.085221458250099 Q -1.2943619974553977 3.073307392381597 -1.317619336123778 3.072950238786502 Q -1.340876674792158 3.072593085191407 -1.3642730314187248 3.0811216970858295 Q -1.3849168755009893 3.0886469428750254 -1.4016331170861414 3.1040952709287186 Q -1.4183493586712936 3.119543598982412 -1.427780970921058 3.1414314256237112 Q -1.4372125831708225 3.16331925226501 -1.4379211614518943 3.1906025285084834 Q -1.4386297397329657 3.217885804751956 -1.4272582572070696 3.2490809469207114 L -1.4098665780498163 3.2967911643552785 L -1.18828931823351 3.2160201928845735 L -1.19865743465418 3.18757756326012 M -1.642177704862907 2.64806213752704 Q -1.724377526747751 2.655319018387272 -1.7950340151576514 2.635087073884793 Q -1.865690503567552 2.614855129382314 -1.919410434114381 2.5671484076379656 Q -1.97313036466121 2.519441685893617 -2.0072385952126206 2.444024016228516 Q -2.0413468257640317 2.368606346563415 -2.050450131931897 2.2654917770984033 Q -2.059553438099762 2.1623772076333916 -2.039186047047016 2.082150244143758 Q -2.018818655994269 2.001923280654124 -1.9742879118621723 1.9455426539762437 Q -1.929757167730075 1.8891620272983634 -1.8637382126509738 1.8568639081111196 Q -1.7977192575718728 1.8245657889238758 -1.7155194356870287 1.8173089080636435 Q -1.6323468348449672 1.8099661469565445 -1.560960762217154 1.8301336812738738 Q -1.489574689589341 1.8503012155912026 -1.435854759042512 1.8980079373355512 Q -1.3821348284956827 1.9457146590798997 -1.3480265979442718 2.0211323287450007 Q -1.3139183673928612 2.0965499984101017 -1.3048150612249958 2.1996645678751134 Q -1.2957117550571307 2.302779137340125 -1.3160791461098769 2.383006100829759 Q -1.3364465371626233 2.4632330643193927 -1.3809772812947205 2.519613690997273 Q -1.4255080254268178 2.5759943176751534 -1.4922565647238315 2.6083568470475473 Q -1.5590051040208455 2.6407193764199413 -1.642177704862907 2.64806213752704 M -1.4054976832969648 2.208553173425812 Q -1.4080740907029645 2.1793698047092995 -1.420263515431677 2.1578976312854063 Q -1.4324529401603894 2.136425457861513 -1.4634538421819439 2.1239667315540807 Q -1.4944547442034983 2.111508005246649 -1.5486446288253717 2.108449187166578 Q -1.6028345134472448 2.105390369086507 -1.689411840639566 2.113033711057639 Q -1.7750163888746702 2.120591172781905 -1.8273458000680685 2.1330538778938744 Q -1.8796752112614667 2.1455165830058434 -1.9075274361515464 2.163171064248708 Q -1.935379661041626 2.1808255454915724 -1.9436185944144724 2.2041012040996657 Q -1.951857527787319 2.2273768627077586 -1.9492811203813192 2.256560231424271 Q -1.9467047129753197 2.2857436001407843 -1.9344938181848905 2.3074589683039815 Q -1.9222829233944614 2.329174336467179 -1.8917684108515154 2.3416760028980446 Q -1.8612538983085698 2.3541776693289096 -1.8075504031653047 2.357279427532414 Q -1.75384690802204 2.360381185735918 -1.668242359786936 2.3528237240116523 Q -1.5816650325946149 2.3451803820405206 -1.528849231922608 2.3326747368051177 Q -1.4760334312506012 2.3201690915697153 -1.447694816881913 2.3024716702034174 Q -1.419356202513225 2.2847742488371194 -1.411138739202095 2.261255395489722 Q -1.4029212758909653 2.2377365421423248 -1.4054976832969648 2.208553173425812 M -1.8374403814369187 1.3342687324249138 L -2.032066687381291 1.3862455442234987 L -1.9820310729275352 1.0931220918659608 L -1.206496588563015 0.8648939890358246 L -1.260147255620983 1.17919549049637 L -1.383738880006873 1.2125864650765594 L -1.4318848078720632 1.4946395735847977 L -1.3262862862207747 1.566657525221851 L -1.347072838694995 1.688431307564145 L -1.8374403814369187 1.3342687324249138 M -1.5025878292803057 1.244310285745905 L -1.7144122366352834 1.3012769168560607 L -1.533397936702569 1.4248050224192657 L -1.5025878292803057 1.244310285745905 M -1.8262779600503933 0.4814408557513874 L -1.7188293882975816 0.21994040201398413 L -1.1513015441245884 0.45366122264787345 L -1.045894309658963 0.1971288258899373 L -0.9424683961773302 0.23962575668681796 L -1.1551386262787504 0.7572069656385694 L -1.8262779600503933 0.4814408557513874 M -1.4788242603020274 -0.27861421842986245 L -1.1481146359452907 -0.7734999169281755 L -1.055145952634287 -0.7113731704329396 L -1.2287752878174794 -0.45154802930174975 L -1.0540705901731673 -0.33421354710630125 L -0.9265615471480106 -0.5250226351245187 L -0.8335928638370067 -0.46289588862928277 L -0.9611019068621635 -0.27208680061106527 L -0.7187337674007255 -0.11012318638549379 L -0.875542760738046 0.124531394198612 L -1.4788242603020274 -0.27861421842986245 M -0.6822304050458865 -1.009312247243745 L -0.8688960836808183 -1.0850546551144897 L -0.6523944362759622 -1.2888976282745914 L 0.10413709147413075 -1.0039382436597033 L -0.12800671107984463 -0.7853676993681655 L -0.24677487007268273 -0.8331586107552666 L -0.4550999363768628 -0.6370141406865972 L -0.41418704960350494 -0.515920091168031 L -0.5041294417109411 -0.43123655716227444 L -0.6822304050458865 -1.009312247243745 M -0.360753053703509 -0.8794235780358928 L -0.5641524671048792 -0.9615421218570458 L -0.4940668759971396 -0.753904505892973 L -0.360753053703509 -0.8794235780358928 M 0.1381586221979999 -1.7357645076687263 L -0.11332639456038929 -1.5912724867059354 L -0.16635545275885466 -1.6835683346071624 L 0.4085884071029172 -2.0139053118251256 L 0.4311910960654409 -1.3139597674732033 L 0.6919903727037704 -1.4638033447679495 L 0.7455059360233226 -1.370660745968546 L 0.15151018095258187 -1.0293774035261292 L 0.1381586221979999 -1.7357645076687263 M 0.6758138758866807 -2.120040495893207 L 0.9446294694903548 -2.207595390171547 L 1.1342455083751037 -1.6238496975047136 L 1.3979540699759447 -1.7097412000091992 L 1.432582862358915 -1.6034220792229446 L 0.9005229827910214 -1.430126899874106 L 0.6758138758866807 -2.120040495893207 M 1.8795282191424887 -2.4068532857884417 L 2.2633172591843778 -2.406984580700697 Q 2.3443719419413163 -2.407012309651631 2.4051676311814667 -2.393361232164866 Q 2.4659633204216176 -2.379710154678101 2.506743405067265 -2.354577619770997 Q 2.5475234897129124 -2.3294450848638926 2.5680434115486603 -2.2940517120690807 Q 2.5885633333844082 -2.2586583392742687 2.588578200111114 -2.2152013105672355 Q 2.5885930668378196 -2.171744281860202 2.5644362591642045 -2.1334059374054375 Q 2.5402794514905893 -2.095067592950673 2.493902256841759 -2.0672196943513703 Q 2.570081644268713 -2.045273097919343 2.6076938309615776 -2.0028054938793933 Q 2.6453060176544425 -1.960337889839443 2.645327064930453 -1.8988144559395983 Q 2.6453414305315395 -1.856822270896847 2.6250911231921523 -1.8177528409449262 Q 2.6048408158527656 -1.7786834109930054 2.564567971681142 -1.7483961943099797 Q 2.524295127509519 -1.7181089776269542 2.4637545201227695 -1.6997777186311647 Q 2.4032139127360206 -1.6814464596353753 2.322159229979082 -1.681418730684441 L 1.879776443365912 -1.6812673907474143 L 1.8795282191424887 -2.4068532857884417 M 2.1921290941473375 -2.112038334845111 Q 2.232168154304379 -2.112052032278705 2.2595093135552773 -2.1196297455557223 Q 2.2868504728061754 -2.1272074588327397 2.3032033835934174 -2.1403966477140264 Q 2.31955629438066 -2.1535858365953136 2.3266305256257978 -2.17067810145243 Q 2.3337047568709357 -2.187770366309547 2.333698409279758 -2.206325052723786 Q 2.3336920616885806 -2.224879739138025 2.3266061375123255 -2.241967159780822 Q 2.319520213336071 -2.259054580423619 2.303158365808618 -2.2719884368886945 Q 2.2867965182811645 -2.2849222933537705 2.259450097211264 -2.2927254385517144 Q 2.2321036761413633 -2.3005285837496583 2.1920646159843216 -2.3005148863160643 L 2.1622794614772536 -2.3005046967618052 L 2.161855658418842 -2.112027978248979 L 2.1921290941473375 -2.112038334845111 M 2.1922400099510746 -1.7878196038173573 Q 2.235697038658108 -1.787834470544063 2.2654790193695864 -1.7971220033054414 Q 2.2952610000810654 -1.8064095360668198 2.313810174113492 -1.8225291639650998 Q 2.3323593481459186 -1.8386487918633796 2.3406526955468308 -1.860380145928739 Q 2.348946042947743 -1.8821114999940982 2.3489375238122148 -1.9070138422868925 Q 2.348930006927925 -1.928986497251123 2.34013376214169 -1.9499795830187827 Q 2.3313375173554545 -1.9709726687864426 2.3139979380920352 -1.9873241597177635 Q 2.296658358828616 -2.0036756506490843 2.2712643109559956 -2.013676729510944 Q 2.2458702630833756 -2.023677808372803 2.2126671400263165 -2.0236664495254324 L 2.161885892997873 -2.0236490771706306 L 2.1619665742225793 -1.787809247221225 L 2.1922400099510746 -1.7878196038173573 M 3.1267049382888716 -2.1292281716916173 L 3.091027351706836 -2.3274908705181465 L 3.378999196226243 -2.253348185107805 L 3.542206634001202 -1.4615747733194837 L 3.2334289419303106 -1.541074237314481 L 3.2103896253958717 -1.667006904622784 L 2.933293564823831 -1.7383494557729653 L 2.8527765037724735 -1.6390789364201055 L 2.733142880351439 -1.669880413281873 L 3.1267049382888716 -2.1292281716916173 M 3.188618905009058 -1.7880751055472999 L 3.1493931396195194 -2.003890109522772 L 3.011296340649817 -1.8337294684847025 L 3.188618905009058 -1.7880751055472999 M 4.007043151522703 -2.044875357177929 L 4.25300452159458 -1.906474356412284 L 4.103828356409465 -1.6413637447258154 L 4.285533382396819 -1.5391194067899499 L 4.434709547581935 -1.8042300184764184 L 4.681096456356357 -1.665589569612563 L 4.32485104371307 -1.0334785057266769 L 4.078889673641194 -1.1718795064923218 L 4.230699767906625 -1.4416710439068017 L 4.04899474191927 -1.5439153818426674 L 3.897184647653839 -1.2741238444281873 L 3.651223277581963 -1.412524845193832 L 4.007043151522703 -2.044875357177929 M 5.008117274602347 -1.1539917442902259 L 5.075875088954703 -1.3437016979681744 L 5.2887164494786525 -1.1360397700996285 L 5.036097769217415 -0.3681038315324482 L 4.807878707768912 -0.5907692484423996 L 4.850589691636038 -0.7114573533196407 L 4.645786674777197 -0.9112765482801792 L 4.526536679490129 -0.8652649002226616 L 4.43811489917394 -0.9515349622107439 L 5.008117274602347 -1.1539917442902259 M 4.891979246031576 -0.8272950774348813 L 4.965397785919694 -1.0339941210031205 L 4.760919294970031 -0.9551657226741338 L 4.891979246031576 -0.8272950774348813 M 5.724916618337159 -0.6454881377177222 L 5.941474203676373 -0.2874251555000507 Q 5.98342118053321 -0.2180687318732905 6.000258070844895 -0.15720717204485107 Q 6.017094961156579 -0.09634561221641164 6.011872779705134 -0.04553885971752475 Q 6.006650598253688 0.005267892781362027 5.980496428065931 0.045052855165251204 Q 5.954342257878173 0.08483781754914044 5.9100544211044586 0.11162323650591599 Q 5.855321339808642 0.14472597125438397 5.797246703885509 0.14447006695384101 Q 5.739172067962376 0.1442141626532979 5.683274980045871 0.1084029272854996 L 5.505162065882472 0.3941655473969701 L 5.340153777403468 0.1213357604796545 L 5.506135598007305 -0.11372136890954745 L 5.475307096943846 -0.16469416217740732 L 5.250107625047317 -0.02849283370852007 L 5.10405128394339 -0.2699868870595284 L 5.724916618337159 -0.6454881377177222 M 5.559774909392237 -0.19580818617831663 Q 5.577716086240643 -0.16614369173554572 5.600223069231716 -0.14780019663939012 Q 5.6227300522227885 -0.12945670154323455 5.647835121860099 -0.12238540114462562 Q 5.672940191497408 -0.11531410074601667 5.6993461306970765 -0.11930107324666916 Q 5.725752069896745 -0.12328804574732169 5.750820656749791 -0.13844960364738335 Q 5.775889243602837 -0.15361116154744503 5.7916820922724614 -0.1751461448452296 Q 5.807474940942088 -0.19668112814301425 5.812869985309317 -0.2221989906533649 Q 5.818265029676546 -0.2477168531637155 5.812470437920838 -0.27616805352657886 Q 5.806675846165128 -0.3046192538894422 5.788734669316722 -0.33428374833221314 L 5.78014311984002 -0.34848928088227243 L 5.550930667283867 -0.21043152850926 L 5.559774909392237 -0.19580818617831663 M 6.227604926144394 0.2546761522607136 L 6.319315910317444 0.5498384761159721 L 5.924427131818945 0.8504711437097997 L 6.416387568130942 0.86225357403544 L 6.454668340947721 0.9838106917953917 L 5.685809259862525 0.9563141084411041 L 5.6180356244412755 0.7365460744442639 L 6.227604926144394 0.2546761522607136 M 6.331548221996845 1.481546860057399 L 6.508870657154976 1.385955323194096 L 6.528003292874668 1.6827024601409994 L 5.826304715147065 2.0841509741188755 L 5.805789754350745 1.7659639783449381 L 5.918304087132678 1.7048872092719565 L 5.899894030430315 1.4193472712573665 L 5.7804994887442565 1.3737120157139742 L 5.772551119553646 1.2504328274585281 L 6.331548221996845 1.481546860057399 M 6.026590076640516 1.6465295361040844 L 6.219489742254694 1.5421049431325704 L 6.014808897010164 1.4638034665554984 L 6.026590076640516 1.6465295361040844 M 6.524355403482574 2.3413210717481334 L 6.490592909516123 2.5148244385193594 L 6.023044019203488 2.8929288021763675 L 6.40254927884118 2.9672752071161472 L 6.382030636099138 3.0727192421704834 L 5.66980410841394 2.9341251371037815 L 5.70356660238039 2.760621770332556 L 6.169770886045658 2.381758315933364 L 5.7916102330553345 2.308171001735768 L 5.812128875797376 2.202726966681432 L 6.524355403482574 2.3413210717481334 M 6.255409256355688 3.4488874313404327 L 6.1236238830632415 3.716542578413948 Q 6.067976376828461 3.8295622640849247 6.005965394528399 3.9018948863307688 Q 5.9439544122283365 3.9742275085766128 5.8760313842198695 4.008272374612007 Q 5.8081083562114015 4.042317240647401 5.735152746478802 4.039051631291175 Q 5.662197136746203 4.035786021934949 5.584660375646346 3.997609244401785 Q 5.515446769692802 3.963530539033198 5.468592751398223 3.907805478020383 Q 5.421738733103643 3.8520804170075684 5.404020875264529 3.7758685452787644 Q 5.3863030174254165 3.6996566735499608 5.401660524826412 3.6043532783816197 Q 5.417018032227408 3.509049883213279 5.472665538462189 3.396030197542302 L 5.604450911754635 3.128375050468787 L 6.255409256355688 3.4488874313404327 M 5.575280496532037 3.428594177123853 Q 5.553711695665843 3.4724002568412855 5.5500365396852915 3.5141314488837523 Q 5.54636138370474 3.5558626409262186 5.562864651040334 3.59419473573242 Q 5.579367918375928 3.6325268305386214 5.61703023223642 3.6671262689257893 Q 5.654692546096913 3.7017257073129572 5.716021057701319 3.731922028525629 Q 5.776911508508551 3.761902661729639 5.826312106891494 3.7698982626632795 Q 5.875712705274436 3.77789386359692 5.9151700335829 3.766842959496529 Q 5.954627361891364 3.755792055396138 5.984259291299457 3.727113330267644 Q 6.01389122070755 3.69843460513915 6.03502864555642 3.655504647016066 L 5.575280496532037 3.428594177123853 M 5.722052536036803 4.401069159313817 L 5.549147775605238 4.624746665327923 L 4.975379435058556 4.180601325937043 L 5.147985568960878 3.957310136859059 L 5.722052536036803 4.401069159313817" fill="#000000" fill-rule="nonzero"></path></g><g><path d=" M 0.9798234168548969 5.863296369595611 Q 0.9883868047167588 5.8303924429556595 1.0028827000424632 5.798515821134861 Q 1.0173785953681673 5.766639199314062 1.042393946550005 5.738016966605041 Q 1.0674092977318428 5.709394733896021 1.1072791888132265 5.687221737139637 Q 1.1471490798946105 5.665048740383254 1.2064604592678316 5.651552063872133 Q 1.2383035383997882 5.6443396917660955 1.2719562104537734 5.638114929631931 Q 1.3056088825077585 5.631890167497767 1.3366299786895601 5.621880592497828 Q 1.3676510748713617 5.611871017497887 1.389286104766982 5.5942521219191175 Q 1.4109211346626025 5.5766332263403475 1.4187289294778296 5.546632587345098 Q 1.4250255381997867 5.52243852363925 1.4170377256234745 5.4955601894229025 Q 1.4090499130471623 5.468681855206555 1.3842788831074375 5.446735418691136 Q 1.3595078531677127 5.424788982175719 1.3169263010454224 5.413706950825074 Q 1.2859578995019385 5.405647291660969 1.2585292941079533 5.407808681524238 Q 1.2311006887139682 5.409970071387508 1.2083452690394338 5.417997578811099 Q 1.1855898493648993 5.426025086234691 1.1686410049797682 5.4355637797515515 Q 1.1516921605946373 5.445102473268412 1.1407155185206277 5.451545557062613 L 1.110939353343851 5.395230550293855 Q 1.11728935217829 5.3906832967488425 1.1381290941799962 5.380090603356588 Q 1.1589688361817025 5.369497909964333 1.1898640001890648 5.359972216238511 Q 1.2207591641964273 5.350446522512687 1.2600726319417368 5.348278285016817 Q 1.2993860996870465 5.346110047520947 1.3429354143575707 5.35744394322047 Q 1.4019689297998368 5.372807668502045 1.438651517147127 5.404570662465279 Q 1.475334104494417 5.436333656428513 1.4885255265441777 5.476965988189133 Q 1.5017169485939381 5.5175983199497525 1.49113864594105 5.558244346975576 Q 1.4808122076370402 5.597922611453164 1.456446364751038 5.622063980520693 Q 1.4320805218650356 5.6462053495882225 1.4000519682877208 5.660085974781097 Q 1.368023414710406 5.673966599973973 1.3355705221298935 5.6815369211796884 Q 1.3031176295493807 5.689107242385403 1.2771208205541067 5.693707886042898 Q 1.2260949651117925 5.703161037706763 1.1895855478929862 5.716392154603803 Q 1.15307613067418 5.729623271500842 1.1290216944079747 5.746612506207417 Q 1.1049672581417698 5.763601740913992 1.0893906678844307 5.781764060037798 Q 1.073814077627092 5.799926379161604 1.0641501474099557 5.82117746037547 L 1.4106091396776814 5.911344897273898 L 1.3949935500472275 5.971346175264397 L 0.9798234168548969 5.863296369595611 M 2.143787729810409 5.766073781216768 Q 2.135955603511782 5.853724553019658 2.097487981522579 5.919060163971847 Q 2.0590203595333754 5.984395774924035 1.9987755081877934 6.018167921529614 Q 1.9385306568422116 6.0519400681351945 1.8668163890034832 6.045531964799954 Q 1.7951021211647546 6.039123861464714 1.7422973975145633 5.99525005196261 Q 1.6894926738643719 5.951376242460506 1.6627202327502875 5.880211037501953 Q 1.635947791636203 5.809045832543399 1.6437799179348302 5.721395060740509 Q 1.6516120442334572 5.633744288937619 1.6905776819715406 5.568453178703035 Q 1.729543319709624 5.503162068468453 1.7893346560239316 5.468847405396388 Q 1.8491259923382393 5.434532742324322 1.9208402601769676 5.440940845659562 Q 1.9925545280156962 5.447348948994803 2.045812766697162 5.491765274963393 Q 2.0990710053786277 5.536181600931982 2.125345430743832 5.60730230517293 Q 2.1516198561090363 5.678423009413877 2.143787729810409 5.766073781216768 M 2.075061556464961 5.759932682187163 Q 2.0813806583649894 5.689214445846194 2.063278011417937 5.63338171195728 Q 2.0451753644708845 5.577548978068364 2.007052616836676 5.543520958543002 Q 1.968929869202467 5.50949293901764 1.9151441683234207 5.50468686151621 Q 1.8613584674443744 5.499880784014779 1.8178066322622537 5.526610685852785 Q 1.7742547970801328 5.55334058769079 1.7460419793813398 5.605034754842362 Q 1.7178291616825467 5.656728921993934 1.7115100597825181 5.727447158334902 Q 1.7051909578824895 5.798165394675871 1.7237916205784218 5.854042629282391 Q 1.7423922832743544 5.909919863888912 1.780559531626169 5.943449867665394 Q 1.8187267799779838 5.976979871441876 1.8725124808570301 5.9817859489433065 Q 1.9262981817360765 5.986592026444737 1.9698500169181972 5.959862124606731 Q 2.013401852100318 5.933132222768727 2.041072153332625 5.8818915706484285 Q 2.068742454564932 5.830650918528131 2.075061556464961 5.759932682187163 M 2.833058569512503 5.721395017282777 Q 2.84089069581113 5.809045789085668 2.8146162704459257 5.880166493326615 Q 2.7883418450807214 5.951287197567563 2.7350391056816497 5.995205507787272 Q 2.6817363662825784 6.039123818006982 2.61002209844385 6.0455319213422225 Q 2.538307830605121 6.051940024677463 2.4785609950084195 6.018123377354278 Q 2.418814159411718 5.984306730031093 2.3798485216736345 5.91901561979651 Q 2.340882883935551 5.853724509561927 2.333050757636924 5.7660737377590365 Q 2.3252186313382968 5.6784229659561465 2.3519910724523814 5.607257760997593 Q 2.3787635135664655 5.53609255603904 2.4315237364990514 5.491720730788056 Q 2.484283959431637 5.447348905537072 2.5559982272703654 5.4409408022018315 Q 2.627712495109094 5.434532698866591 2.6880018471722815 5.46880286122105 Q 2.748291199235469 5.50307302357551 2.7867588212246726 5.568408634527699 Q 2.825226443213876 5.633744245479887 2.833058569512503 5.721395017282777 M 2.7643323961670547 5.727536116312383 Q 2.758013294267026 5.656817879971415 2.730298492317113 5.605079212102237 Q 2.7025836903672005 5.553340544233059 2.6590318551850793 5.526610642395053 Q 2.6154800200029586 5.499880740557049 2.5616943191239123 5.504686818058479 Q 2.507908618244866 5.509492895559909 2.4697858706106572 5.543520915085272 Q 2.4316631229764485 5.5775489346106335 2.413062460280516 5.633426169217154 Q 2.3944617975845834 5.689303403823675 2.400780899484612 5.760021640164643 Q 2.4071000013846406 5.8307398765056115 2.4353128190834337 5.882434043657184 Q 2.4635256367822267 5.934128210808756 2.5070329712467414 5.9603600968978805 Q 2.5505403057112566 5.986591982987005 2.604326006590303 5.981785905485575 Q 2.658111707469349 5.976979827984145 2.696234455103558 5.9429518084587825 Q 2.7343572027377667 5.9089237889334205 2.7525043504024254 5.853589070793386 Q 2.7706514980670836 5.798254352653351 2.7643323961670547 5.727536116312383 M 3.0779771811861196 5.972352648814798 Q 3.069413793324258 5.939448722174847 3.06653104857736 5.904549728167508 Q 3.0636483038304623 5.86965073416017 3.071536879288576 5.832465113589287 Q 3.07942545474669 5.795279493018405 3.1034278918487415 5.756483449236055 Q 3.127430328950793 5.717687405453704 3.1726373047868304 5.676989379263728 Q 3.196924453452438 5.655168874922749 3.2232730593889527 5.633328523158132 Q 3.2496216653254675 5.611488171393513 3.271827509296529 5.587626057205267 Q 3.2940333532675905 5.563763943017022 3.3043344874636875 5.537833523925268 Q 3.314635621659785 5.511903104833514 3.306827826844558 5.481902465838264 Q 3.3005312181226008 5.457708402132417 3.2804539168001305 5.43813413403354 Q 3.2603766154776608 5.418559865934662 3.228049655071587 5.411473426003063 Q 3.1957226946655135 5.404386986071465 3.153141142543223 5.41546901742211 Q 3.1221727409997393 5.423528676586215 3.0992776938855635 5.438787012591155 Q 3.0763826467713873 5.454045348596096 3.0604275645165666 5.472147429974819 Q 3.0444724822617464 5.490249511353542 3.034323975296329 5.506840406638995 Q 3.024175468330912 5.5234313019244485 3.0177323845367114 5.534407943998458 L 2.9642809705653757 5.499753271233232 Q 2.967608597213275 5.492687374199438 2.9806405443997543 5.473279428596443 Q 2.9936724915862336 5.453871482993447 3.0160042677317342 5.430493250079319 Q 3.0383360438772344 5.40711501716519 3.071604767249465 5.386056953503448 Q 3.1048734906216957 5.364998889841705 3.14842280529222 5.353664994142182 Q 3.207456320734486 5.338301268860606 3.254969075083543 5.348152064471429 Q 3.3024818294325993 5.358002860082252 3.333807484601597 5.387049431794471 Q 3.3651331397705944 5.41609600350669 3.3757114424234826 5.456742030532512 Q 3.3860378807274927 5.4964202950101 3.3765320344253094 5.52937691628837 Q 3.367026188123126 5.562333537566639 3.345827801547578 5.59006670194782 Q 3.32462941497203 5.617799866329001 3.2999843172067442 5.640230184118536 Q 3.2753392194414586 5.6626605019080705 3.2548834261215065 5.679350634311722 Q 3.214939602029837 5.712479034770147 3.189512216161676 5.741829469995397 Q 3.1640848302935143 5.771179905220648 3.151364289726832 5.797739985184597 Q 3.13864374916015 5.824300065148547 3.1338973259045777 5.847751535598797 Q 3.1291509026490054 5.871203006049048 3.1310727324802703 5.89446900205394 L 3.477531724747996 5.804301565155511 L 3.4931473143784504 5.864302843146012 L 3.0779771811861196 5.972352648814798" fill="#ba8437" fill-rule="nonzero"></path></g><g transform="matrix(1,0,0,1,0,0)" clip-path="url(#SvgjsClipPath60456)"><g clip-path="url(#SvgjsClipPath60452add27c80-7edc-457d-a158-329188e197db)"><path d=" M 2.238419000551915 0.03320678248172478 C 1.7793080742329668 0.03320678248172478 1.3314715992605988 0.2047017572613485 0.9652574543494111 0.49384445742052235 L 0.9163721379638481 0.5324535811724835 L 0.914904110444762 0.4680658941853726 C 0.9101183407325419 0.2566405708866103 0.8427945987072589 0.11714859602306088 0.6389442974069803 0.060218488832906716 C 0.4368262685792231 0.003758150448860099 0.18849473345063936 0.07627870989170732 0.08156360896041685 0.276253418541599 C 0.021403841228273542 0.38879240815473 0.020376221964913354 0.5170392922220808 0.05270218793518656 0.6391498212596523 C 0.10387762725052369 0.8324596849728936 0.23664603607665938 1.0135261991769577 0.36683071646920373 1.15545509972219 L 0.3833900668844935 1.1735118382069474 L 0.3714403228791337 1.1952386454894197 C 0.2532641075927126 1.410128513733225 0.16988014450862915 1.6438384947717124 0.12669077489711972 1.8881476344980006 C 0.08220954106881465 2.139855632920482 0.08156360896041683 2.396525564357474 0.12246285564215212 2.6488207737875897 C 0.1949246939842359 3.0958938744500326 0.41703725762194416 3.382394125074852 0.8141680620850825 3.5473123365689703 C 1.4354666687126494 3.805332853323521 3.041312611290417 3.805332853323521 3.662611217917984 3.5473123365689703 C 4.059742022381123 3.382394125074852 4.281854586018831 3.0958938744500326 4.354316424360913 2.6488207737875897 C 4.39521567104265 2.3965255643574737 4.394569738934251 2.1398556329204816 4.350088505105947 1.8881476344980006 C 4.306899135494437 1.6438091342213306 4.2235445329607355 1.4100991531828433 4.105338957123933 1.1952386454894197 L 4.093389213118573 1.1735118382069474 L 4.109948563533863 1.15545509972219 C 4.240162604476789 1.0135261991769575 4.372901652752543 0.8324596849728936 4.42407709206788 0.6391498212596521 C 4.456403058038153 0.5170392922220807 4.4554047993251755 0.3887630476043481 4.39521567104265 0.2762534185415989 C 4.288284546552427 0.07627870989170725 4.039953011423845 0.003758150448860019 3.837805622045705 0.060218488832906675 C 3.633955320745426 0.11714859602306082 3.566631578720144 0.256669931436992 3.5618458090079232 0.46806589418537253 L 3.5603777814888375 0.5324535811724834 L 3.511492465103274 0.49384445742052224 C 3.145366401843231 0.2047017572613485 2.697529926870863 0.03320678248172478 2.238419000551915 0.03320678248172478" fill="#cf9645" transform="matrix(1,0,0,1,0,0)" fill-rule="evenodd"></path></g><g clip-path="url(#SvgjsClipPath60452add27c80-7edc-457d-a158-329188e197db)"><path d=" M 1.8652464052002597 1.2258323389871717 C 1.698008710225985 0.9023671554317677 1.0652888494999295 1.2047221032627156 0.8853086756599887 1.479008364928739 C 0.7253230366299991 1.722818375298538 0.7812842456575565 2.0944055009295806 1.587055190333467 1.9170971371743766 C 1.8725865427956896 1.8542655593574964 2.032484100174534 1.549297522542576 1.8652464052002597 1.2258616995375535 M 1.9515370627721333 2.0929668339608765 C 1.932834392178978 2.161993487908299 2.04863240288448 2.3246802975734067 2.2384483611022965 2.3345454425016645 C 2.428234958769732 2.3246802975734067 2.5440329694752335 2.161993487908299 2.52535965943246 2.0929668339608765 C 2.500520633809525 2.0012444745683844 1.97640544894545 2.0012444745683844 1.9515664233225154 2.0929668339608765 Z M 2.2384483611022965 2.4558925972293113 C 2.2384483611022965 2.4558925972293113 2.201894475877056 2.5416254043439324 2.0959028889990483 2.578913303328716 C 1.9898819415706592 2.6162012023135 1.8167134154192774 2.675832480138772 1.6011482545166926 2.627387572008935 C 1.3855830936141078 2.578913303328716 1.4633298310249012 2.7168491690220344 1.5445998344815008 2.7466794882098613 C 1.5716702619334464 2.7566033542388824 1.6268974572014607 2.75331497259613 1.6936046276687275 2.7435085487686353 C 1.860401914387276 2.642948663711246 2.0545925946119694 2.6050148326180644 2.238448361102297 2.6348451518058913 L 2.238448361102297 2.6348451518058913 C 2.238448361102297 2.6348451518058913 2.238448361102297 2.6348451518058913 2.377470567159739 2.6609466810952402 C 2.516492773217181 2.6870482103845887 2.8509975237161114 2.776509807397688 2.932296887723093 2.7466794882098613 C 3.0135668911796922 2.7168491690220344 3.091313628590486 2.578913303328716 2.875748467687901 2.627387572008935 C 2.6601833067853167 2.6758618406891537 2.4870147806339347 2.6162012023135 2.3809938332055456 2.578913303328716 C 2.2749728857771565 2.541625404343932 2.238448361102297 2.4558925972293113 2.238448361102297 2.4558925972293113 Z M 2.8197578981099616 1.5414876161410382 C 2.801025866966424 1.524575939121168 2.772839738599974 1.5268954226013236 2.7568088780915545 1.546655073008221 C 2.7407780175831356 1.5664147234151182 2.7429800588617645 1.5961569609518 2.7617120900053016 1.6130686379716703 C 2.8685844933947604 1.7094299643244741 3.0201730150155788 1.7297768257390056 3.1464821027577363 1.6648900093954053 C 3.168708039396697 1.6534687552969165 3.177927252216558 1.6252239058297024 3.167122569676085 1.60179418662509 C 3.1563178871356117 1.578364467420478 3.1295410651874835 1.5686167646937472 3.1073151285485223 1.580038018792236 C 3.01250991136595 1.6287471718755089 2.8999415612024375 1.6137145700800684 2.819787258660343 1.5415169766914198 Z M 1.6571388240946316 1.5414876161410382 C 1.6758708552381687 1.524575939121168 1.7040569836046195 1.5268954226013236 1.7200878441130385 1.546655073008221 C 1.7361187046214575 1.5664147234151182 1.7339166633428285 1.5961569609518 1.7151846321992914 1.6130686379716703 C 1.6083122288098324 1.7094299643244741 1.4567237071890144 1.7297768257390056 1.330414619446857 1.6648900093954053 C 1.3081886828078952 1.6534687552969165 1.2989694699880354 1.6252239058297024 1.3097741525285083 1.60179418662509 C 1.320578835068981 1.578364467420478 1.3473556570171092 1.5686167646937472 1.369581593656071 1.580038018792236 C 1.4643868108386433 1.6287471718755089 1.5769551610021562 1.6137145700800684 1.6571094635442503 1.5415169766914198 Z M 3.787599080892964 0.6508059597611949 C 3.768103675439502 0.5238509399106397 3.832109675271651 0.3989805191371866 3.9435036034198943 0.34668937890734414 C 4.054897531568138 0.29442759922788336 4.185669422968317 0.32786926611266193 4.262006853960788 0.428135545666234 C 4.330710541854011 0.5183898775396398 4.107746522255233 0.3976886549203909 3.9731283987550494 0.4398210447181584 C 3.9074488475511426 0.46037342998536207 3.851546359624348 0.5098165968281777 3.787599080892963 0.6507765992108131 Z M 0.6892095596604841 0.6508059597611949 C 0.7087049651139459 0.5238509399106397 0.6446989652817974 0.3989805191371866 0.5333050371335536 0.34668937890734414 C 0.42191110898530965 0.29442759922788336 0.29113921758513084 0.32786926611266193 0.21480178659266008 0.428135545666234 C 0.1460980986994364 0.5183898775396398 0.3690621182982145 0.3976886549203909 0.5036802417983984 0.4398210447181584 C 0.5693597930023051 0.46037342998536207 0.6252622809290991 0.5098165968281777 0.6892095596604841 0.6507765992108131 Z M 2.238419000551915 0.19140142793842954 C 3.4355954423665285 0.19304561875980586 4.410336354489235 1.3694935120049252 4.207278788049264 2.6223375573432794 C 4.141158828589631 3.0301849626957456 3.931759383267207 3.2664786721678234 3.6084410024637115 3.400744469063427 C 3.0246358186736004 3.6432038941156666 1.4522021824302296 3.6432038941156666 0.8683969986401183 3.400744469063427 C 0.5450786178366229 3.2664786721678234 0.33567917251419926 3.0301849626957447 0.2695592130545669 2.622337557343279 C 0.06650164661459472 1.3694935120049252 1.0412425587373013 0.1930749793101876 2.238419000551915 0.19140142793842954 Z M 3.674179274768382 3.5781996355705403 C 4.058244634311655 3.4187131258970394 4.306957856595201 3.138261148650855 4.385379886664774 2.654399278360117 C 4.470965891027487 2.1263204191945095 4.372549326147962 1.6148302709945737 4.13261490842855 1.1785618528726034 C 4.856499278089846 0.3894383402631279 4.28320517133639 -0.09853400708105073 3.829819552341877 0.02812740726568742 C 3.6029212189919493 0.09148747498943814 3.5352745109124672 0.2534989919957665 3.530459380649865 0.46727315932506636 C 3.1583144045615694 0.17343277110481722 2.7038424452029326 0 2.238419000551915 0 C 1.772995555900897 0 1.3185235965422604 0.17343277110481722 0.9464079810043471 0.46727315932506625 C 0.941592850741745 0.25349899199576637 0.8739167821118816 0.09148747498943807 0.647047809312335 0.02812740726568734 C 0.19363282976744028 -0.09853400708105073 -0.3796612769860152 0.3894383402631277 0.34422309267527973 1.1785618528726034 C 0.10428867495586777 1.6148302709945737 0.005872110076343905 2.1263204191945095 0.09145811443905633 2.654399278360117 C 0.16988014450862918 3.138261148650855 0.41859336679217524 3.4186837653466577 0.8026587263354483 3.5781996355705403 C 1.4304166540469936 3.838891962409827 3.0464213470568366 3.838891962409827 3.674179274768382 3.5781996355705403 Z M 1.9767284149996491 3.0921944451019368 C 2.1436431439197245 3.1687667604974608 2.3332242177344877 3.1687667604974608 2.500138946654563 3.0921944451019368 C 2.4418876146972317 3.1846508182539712 2.343647213119998 3.2402009795761852 2.238448361102297 3.2402009795761852 C 2.133249509084596 3.2402009795761852 2.034979746956981 3.1846508182539712 1.976757775550031 3.0921944451019368 Z M 2.6116209564539523 1.2258323389871721 C 2.778858651428227 0.902367155431768 3.411578512154282 1.2047221032627156 3.5915586859942237 1.4790083649287395 C 3.7515443250242133 1.7228183752985384 3.6955831159966555 2.094405500929581 2.889812171320745 1.9170971371743766 C 2.6042808188585225 1.8542655593574968 2.444383261479678 1.5492975225425762 2.6116209564539528 1.225861699537554 Z" fill="#000000" transform="matrix(1,0,0,1,0,0)" fill-rule="evenodd"></path></g><g clip-path="url(#SvgjsClipPath60452add27c80-7edc-457d-a158-329188e197db)"><path d=" M 1.5936025930685906 3.271558047383861 C 1.6228457012487834 3.0547891039156263 1.721908198236705 2.85525480352146 1.8741720125163024 2.706484894737287 C 1.6942799203275067 2.830973628355778 1.5881708912479726 3.0446890745843143 1.5936025930685906 3.271558047383861 M 2.238419000551915 2.634786430705128 C 1.9340968958453921 2.759891735881635 1.6806859855007708 3.1016485423248503 1.605728500376241 3.437386435939813 C 1.494628177731814 3.147216116517279 1.5590745858196886 2.855900735629858 1.6927238111572758 2.743948957024361 C 1.8596972611781148 2.6430073848120097 2.0542402680073883 2.6048973904165376 2.2383896400015333 2.634786430705128 Z" fill="#ba8437" transform="matrix(1,0,0,1,0,0)" fill-rule="evenodd"></path></g></g><g transform="matrix(-0.9301436602746606,-0.3671958213962366,0.3671958213962366,-0.9301436602746606,-1.7921153819615732,9.982685854807613)"><g clip-path="url(#SvgjsClipPath60457)"><path d=" M 0.05350907123500015 5.346514135802267 C 0.15632460908790968 5.346514135802267 0.24148936639798513 5.261531580097795 0.24148936639798513 5.158533840639282 C 0.24148936639798513 5.05571871688093 0.15632460908790968 4.970554166618134 0.0533268696293967 4.970554166618134 C -0.04948887527079188 4.970554166618134 -0.13447122392798477 5.05571871688093 -0.13447122392798477 5.158533840639282 C -0.13447122392798477 5.261531580097795 -0.04930688071246753 5.346514135802267 0.05350907123500015 5.346514135802267 Z" fill="#000000" transform="matrix(1,0,0,1,0,0)" fill-rule="nonzero"></path></g></g><g transform="matrix(0.9301436602746606,-0.3671958213962366,-0.3671958213962366,-0.9301436602746606,2.204393145014833,11.58726544715225)"><g clip-path="url(#SvgjsClipPath60458)"><path d=" M 4.423328929868829 5.346514135802267 C 4.526144467721738 5.346514135802267 4.611309225031814 5.261531580097795 4.611309225031814 5.158533840639282 C 4.611309225031814 5.05571871688093 4.526144467721738 4.970554166618134 4.423146728263226 4.970554166618134 C 4.320330983363037 4.970554166618134 4.235348634705844 5.05571871688093 4.235348634705844 5.158533840639282 C 4.235348634705844 5.261531580097795 4.320512977921362 5.346514135802267 4.423328929868829 5.346514135802267 Z" fill="#000000" transform="matrix(1,0,0,1,0,0)" fill-rule="nonzero"></path></g></g></g><defs><clipPath id="SvgjsClipPath60456"><path d=" M 0 0 h 4.47683800110383 v 3.77371154056241 h -4.47683800110383 Z"></path></clipPath><clipPath id="SvgjsClipPath60452add27c80-7edc-457d-a158-329188e197db"><path d=" M 0 0 L 4.47683800110383 0 L 4.47683800110383 3.77371154056241 L 0 3.77371154056241 Z"></path></clipPath><clipPath id="SvgjsClipPath60457"><path d=" M -0.2363571194977585 4.861592844379853 h 0.5797323814655173 v 0.600437109375 h -0.5797323814655173 Z"></path></clipPath><clipPath id="SvgjsClipPath60458"><path d=" M 4.13346273913607 4.861592844379853 h 0.5797323814655173 v 0.600437109375 h -0.5797323814655173 Z"></path></clipPath></defs></svg>